<svg xmlns="http://www.w3.org/2000/svg" xmlns:xlink="http://www.w3.org/1999/xlink" width="80" zoomAndPan="magnify" viewBox="0 0 60 60" height="80" preserveAspectRatio="xMidYMid meet" version="1.0"><defs><clipPath id="7a6d55736d"><path d="M 0 1.347656 L 58.5 1.347656 L 58.5 59.847656 L 0 59.847656 Z M 0 1.347656 " clip-rule="nonzero"/></clipPath></defs><path fill="#000000" d="M 24.386719 37.1875 L 21.859375 37.1875 C 20.691406 37.1875 19.707031 36.203125 19.707031 35.03125 L 19.707031 30.539062 C 19.707031 29.367188 20.691406 28.382812 21.859375 28.382812 L 24.386719 28.382812 C 25.554688 28.382812 26.539062 29.367188 26.539062 30.539062 L 26.539062 35.03125 C 26.539062 36.203125 25.617188 37.1875 24.386719 37.1875 Z M 24.386719 37.1875 " fill-opacity="1" fill-rule="nonzero"/><path fill="#000000" d="M 35.160156 37.1875 L 32.636719 37.1875 C 31.46875 37.1875 30.480469 36.203125 30.480469 35.03125 L 30.480469 30.539062 C 30.480469 29.367188 31.46875 28.382812 32.636719 28.382812 L 35.160156 28.382812 C 36.332031 28.382812 37.316406 29.367188 37.316406 30.539062 L 37.316406 35.03125 C 37.316406 36.203125 36.332031 37.1875 35.160156 37.1875 Z M 35.160156 37.1875 " fill-opacity="1" fill-rule="nonzero"/><g clip-path="url(#7a6d55736d)"><path fill="#000000" d="M 29.25 1.347656 C 13.117188 1.347656 0 14.464844 0 30.597656 C 0 46.734375 13.117188 59.847656 29.25 59.847656 L 53.882812 59.847656 C 56.46875 59.847656 58.5 57.753906 58.5 55.230469 L 58.5 30.597656 C 58.5 14.464844 45.382812 1.347656 29.25 1.347656 Z M 49.753906 34.726562 C 49.753906 36.632812 48.214844 38.113281 46.367188 38.113281 L 44.828125 38.113281 C 44.707031 38.113281 44.523438 38.113281 44.398438 38.050781 C 41.933594 43.285156 36.085938 46.917969 29.25 46.917969 C 22.414062 46.917969 16.566406 43.285156 14.164062 38.113281 L 12.625 38.113281 C 10.714844 38.113281 9.238281 36.574219 9.238281 34.726562 L 9.238281 30.84375 C 9.238281 28.9375 10.777344 27.457031 12.625 27.457031 L 14.101562 27.457031 C 16.195312 23.023438 20.875 19.699219 26.539062 18.898438 L 26.539062 15.203125 C 25.371094 14.527344 24.570312 13.296875 24.570312 11.816406 C 24.570312 9.664062 26.292969 7.9375 28.449219 7.9375 C 30.605469 7.9375 32.328125 9.664062 32.328125 11.816406 C 32.328125 13.234375 31.527344 14.527344 30.359375 15.203125 L 30.359375 18.714844 C 36.699219 19.144531 41.996094 22.59375 44.273438 27.457031 C 44.398438 27.457031 44.582031 27.398438 44.707031 27.398438 L 46.246094 27.398438 C 48.15625 27.398438 49.632812 28.9375 49.632812 30.785156 L 49.632812 34.726562 Z M 49.753906 34.726562 " fill-opacity="1" fill-rule="nonzero"/></g></svg>